<?xml version="1.0" standalone="no"?>
<!DOCTYPE svg PUBLIC "-//W3C//DTD SVG 20010904//EN"
 "http://www.w3.org/TR/2001/REC-SVG-20010904/DTD/svg10.dtd">
<svg version="1.0" xmlns="http://www.w3.org/2000/svg"
 width="586.000000pt" height="586.000000pt" viewBox="0 0 586.000000 586.000000"
 preserveAspectRatio="xMidYMid meet">
<metadata>
Created by potrace 1.11, written by Peter Selinger 2001-2013
</metadata>
<g transform="translate(0.000000,586.000000) scale(0.100000,-0.100000)"
fill="#000000" stroke="none">
<path d="M616 5718 c-9 -79 -19 -226 -21 -328 -5 -205 -8 -210 51 95 19 99 36
185 38 190 2 6 2 -80 -1 -190 -6 -209 7 -483 32 -700 15 -129 59 -347 76 -375
5 -9 7 76 4 205 l-5 220 20 -90 c39 -172 126 -465 141 -475 5 -3 20 -40 34
-83 22 -65 164 -373 165 -356 0 3 -11 38 -25 77 -34 98 -31 118 8 51 18 -30
44 -71 59 -90 27 -33 28 -33 28 -9 0 14 -20 84 -44 156 -24 72 -47 151 -50
175 -6 37 4 22 58 -89 36 -73 68 -150 71 -170 3 -20 8 -51 11 -68 4 -29 33
-74 48 -74 3 0 6 10 6 23 1 13 19 -16 48 -73 34 -69 52 -94 64 -92 10 1 33
-19 60 -53 69 -89 107 -130 113 -123 4 3 -1 20 -10 37 -8 17 -12 31 -8 31 17
0 143 -82 143 -94 0 -8 31 -22 75 -35 55 -17 84 -32 111 -59 30 -30 84 -103
84 -114 0 -2 -30 -2 -66 -1 -57 2 -75 7 -137 44 -40 23 -85 54 -102 69 -16 15
-55 43 -85 63 -130 85 -282 252 -317 350 -9 26 -21 47 -25 47 -4 0 -8 11 -8
24 0 14 -4 28 -10 31 -10 6 -8 -10 11 -108 10 -52 54 -131 69 -122 5 3 24 -14
42 -37 40 -53 102 -110 233 -214 130 -105 149 -116 307 -175 73 -28 134 -51
135 -53 2 -1 23 -56 48 -121 46 -121 83 -183 72 -120 -2 17 -2 38 2 49 6 16
13 10 45 -38 57 -86 96 -177 114 -268 l17 -83 3 55 c2 30 6 58 10 62 4 4 41
-41 82 -99 64 -91 174 -223 140 -168 -7 11 23 -16 66 -60 44 -44 104 -102 134
-128 48 -42 49 -44 10 -16 -58 43 -161 128 -177 148 -18 21 -17 16 17 -80 24
-69 30 -104 32 -191 l3 -107 24 22 c13 12 28 33 33 47 10 24 11 24 34 -25 13
-27 24 -56 24 -64 0 -8 2 -12 5 -9 3 3 1 27 -5 53 -7 31 -7 52 -1 58 6 6 12
-16 16 -58 4 -36 4 -70 -1 -75 -17 -17 -189 -61 -231 -59 -60 4 -70 -9 -76
-99 -9 -144 -123 -451 -230 -619 -21 -34 -34 -43 -64 -48 -21 -3 -48 -8 -59
-10 -13 -3 -36 -27 -55 -57 -18 -29 -63 -87 -99 -128 -37 -41 -92 -108 -123
-149 -31 -40 -71 -84 -89 -98 -43 -33 -249 -132 -463 -224 -93 -39 -269 -119
-390 -177 -121 -58 -303 -142 -405 -188 l-185 -84 806 0 805 0 26 103 c23 92
107 329 331 932 41 110 88 247 105 305 58 196 120 375 128 370 4 -3 36 -61 71
-130 34 -69 83 -159 108 -200 25 -41 61 -106 81 -145 38 -72 125 -207 214
-330 79 -108 215 -259 406 -447 96 -95 173 -177 171 -183 -2 -5 -12 -12 -23
-14 -10 -2 -50 -23 -88 -48 -38 -25 -92 -55 -120 -67 -105 -47 -296 -139 -293
-142 2 -2 79 30 171 71 93 42 180 78 195 81 28 7 155 86 166 104 5 8 14 6 31
-4 13 -9 25 -16 26 -16 2 0 -69 74 -157 163 -143 146 -293 312 -365 405 -14
17 -29 32 -35 32 -18 1 -186 267 -220 348 -28 66 -79 229 -140 445 -9 31 -15
65 -13 75 3 9 12 -15 21 -54 45 -194 209 -614 239 -614 4 0 -2 24 -13 53 -41
101 -79 208 -79 220 1 7 16 -28 34 -78 63 -171 95 -235 163 -322 71 -90 111
-142 205 -264 31 -41 138 -155 237 -254 100 -99 181 -182 181 -186 0 -3 -20
-7 -44 -7 -55 -3 -172 -38 -179 -55 -3 -6 -71 -41 -151 -77 l-146 -65 170 -3
c93 -1 247 -1 342 0 l172 3 -43 28 c-50 33 -131 115 -131 133 0 23 38 22 57
-2 10 -12 49 -54 87 -93 59 -62 72 -71 104 -71 l36 0 -120 118 c-177 173 -199
226 -143 351 19 44 19 44 -1 58 -36 25 -24 67 39 137 l26 29 -34 -7 c-19 -3
-71 -9 -115 -12 -78 -5 -85 -4 -177 34 -152 62 -152 64 -8 57 106 -5 152 -2
290 20 90 14 174 29 185 34 59 26 213 164 277 250 37 49 111 129 164 178 53
48 162 149 242 223 80 74 139 126 130 115 -23 -29 -201 -237 -219 -256 -23
-24 -76 -84 -157 -177 -40 -46 -79 -90 -86 -97 -7 -7 -26 -27 -42 -46 -17 -19
-89 -99 -161 -179 -210 -234 -344 -389 -344 -400 0 -6 7 -10 15 -10 8 0 15 5
15 12 0 6 33 46 73 87 120 126 330 360 558 622 31 35 96 109 144 164 136 156
265 312 340 410 37 50 71 94 76 99 5 6 19 0 34 -14 l25 -23 0 -216 c-1 -122
-6 -255 -14 -306 -16 -111 -63 -218 -143 -324 -32 -42 -79 -107 -105 -146 -26
-38 -92 -117 -148 -175 -138 -144 -311 -327 -408 -433 -45 -49 -105 -107 -134
-130 l-52 -42 207 -3 c114 -1 300 -1 415 0 l207 3 -180 91 c-99 50 -206 101
-237 114 -33 13 -58 30 -58 38 0 8 6 12 13 9 100 -43 140 -57 144 -53 5 5 -30
21 -100 47 -35 12 -37 15 -31 44 8 36 64 107 274 350 240 278 313 371 309 392
-1 4 3 19 8 33 49 115 95 277 112 395 7 51 9 54 10 20 0 -22 -4 -67 -9 -100
-6 -33 -15 -90 -20 -128 -11 -73 -72 -206 -141 -309 -43 -63 -51 -85 -16 -41
50 61 97 133 121 187 14 31 27 56 29 56 1 0 -6 -71 -15 -157 -35 -305 -59
-600 -63 -748 -3 -165 -2 -155 21 145 18 249 70 777 80 814 3 14 10 26 14 26
17 0 89 -449 171 -1062 12 -93 25 -168 29 -168 4 0 6 10 3 23 -4 28 -51 377
-64 482 -15 124 -77 497 -104 632 l-25 123 45 147 c47 153 77 278 89 373 13
102 17 102 52 -4 17 -54 33 -93 36 -86 2 7 17 -21 32 -61 27 -70 92 -228 121
-294 7 -16 51 -120 98 -230 103 -241 150 -344 225 -493 l57 -113 3 307 2 307
-37 46 c-69 84 -69 84 -129 76 -54 -6 -54 -6 -97 37 -23 24 -55 66 -71 93 -16
28 -34 57 -41 65 -7 8 -32 60 -55 115 -23 55 -59 138 -81 185 -21 47 -43 103
-48 126 -9 33 -17 43 -51 58 -22 10 -62 21 -88 24 l-47 7 -3 105 -3 104 37
-42 c20 -24 38 -41 41 -39 2 3 -8 44 -22 92 -27 86 -29 133 -4 56 13 -39 14
-34 14 86 1 167 18 229 97 337 32 45 62 97 68 116 10 37 39 83 40 64 0 -6 -11
-38 -25 -70 -21 -49 -22 -55 -6 -34 11 14 21 23 24 20 2 -3 10 -29 18 -59 l15
-54 11 39 c6 22 25 95 42 164 18 69 36 138 41 154 10 32 83 156 89 151 2 -2 3
-33 2 -69 0 -36 3 -66 8 -66 5 0 14 28 20 63 21 109 43 166 65 173 34 11 176
116 176 131 0 17 -15 17 -30 -1 -21 -26 -106 -76 -129 -76 -21 0 -20 2 14 70
19 38 49 105 66 147 17 43 43 91 57 106 19 19 21 26 9 22 -13 -6 -16 -3 -10
11 4 11 3 15 -4 11 -16 -10 -7 42 11 62 14 16 16 126 16 1079 l0 1062 -2614 0
-2613 0 -17 -142z m4174 -795 c0 -8 -14 -13 -35 -13 l-35 0 0 68 c0 38 3 72 7
75 7 7 62 -108 63 -130z m-331 -25 c1 -12 -6 -18 -20 -18 -19 0 -21 4 -15 31
3 17 6 41 7 53 0 15 4 12 14 -14 7 -19 14 -43 14 -52z m-1624 -67 c19 -52 34
-96 32 -98 -2 -2 -15 1 -29 6 -21 8 -26 19 -36 80 -12 72 -15 118 -7 110 2 -3
20 -47 40 -98z m-715 1 c0 -8 -6 -12 -12 -10 -7 3 -14 22 -15 44 l-2 39 14
-30 c8 -16 14 -36 15 -43z m259 -20 c1 -13 -3 -20 -9 -17 -5 3 -10 25 -9 48 1
36 2 38 9 17 4 -14 8 -35 9 -48z m837 -124 c29 -65 50 -118 48 -118 -3 0 -10
5 -17 10 -7 6 -24 19 -38 30 -25 18 -35 50 -65 210 -4 23 -3 24 8 5 6 -11 35
-73 64 -137z m1622 124 c3 -9 -7 -11 -40 -6 -63 10 -73 26 -14 22 29 -2 51 -8
54 -16z m321 -57 c7 -40 6 -46 -8 -43 -12 2 -17 17 -19 63 -2 69 12 58 27 -20z
m-1094 -72 c66 -215 140 -416 156 -421 25 -9 3 -34 -56 -63 -36 -17 -67 -30
-69 -28 -9 11 -46 237 -55 339 -18 202 -23 290 -17 290 2 0 21 -53 41 -117z
m-1470 97 c3 -5 1 -10 -4 -10 -6 0 -11 5 -11 10 0 6 2 10 4 10 3 0 8 -4 11
-10z m1835 -31 l-32 -32 4 29 c2 20 10 30 28 34 36 10 36 5 0 -31z m357 30
c47 -8 68 -17 78 -33 21 -32 96 -219 90 -225 -3 -2 -49 3 -103 12 -53 10 -109
17 -124 17 -27 0 -28 1 -28 59 0 71 11 181 18 181 3 0 34 -5 69 -11z m325 -24
c3 -14 1 -25 -3 -25 -5 0 -9 11 -9 25 0 14 2 25 4 25 2 0 6 -11 8 -25z m-569
-87 c19 -57 38 -113 41 -124 6 -20 -3 -25 -110 -61 l-116 -40 5 31 c2 17 10
73 17 124 13 90 15 94 57 132 23 22 49 40 57 40 8 0 27 -38 49 -102z m-2377
14 l22 -63 -39 -19 c-21 -11 -43 -20 -49 -20 -11 0 -14 110 -4 148 5 16 13 22
28 20 16 -2 26 -18 42 -66z m241 42 c3 -9 0 -20 -8 -25 -21 -13 -29 -11 -29 9
0 33 26 44 37 16z m3173 -115 c0 -119 -2 -130 -17 -127 -12 2 -17 12 -16 28 5
66 26 230 29 230 2 0 4 -59 4 -131z m-2942 50 c8 -24 30 -84 49 -132 19 -49
32 -91 30 -94 -10 -9 -87 21 -91 36 -13 42 -31 200 -27 234 3 23 26 -4 39 -44z
m2508 25 c13 -3 24 -11 25 -18 0 -6 3 -41 8 -79 9 -86 5 -93 -51 -81 -49 10
-51 17 -41 132 5 50 9 62 20 57 8 -3 26 -8 39 -11z m-2691 -101 c17 -49 31
-94 33 -100 2 -9 -11 -13 -43 -13 -27 0 -47 5 -50 13 -12 34 -20 177 -11 181
34 14 43 4 71 -81z m484 6 l10 -30 -45 33 c-69 49 -74 60 -21 42 35 -12 48
-22 56 -45z m958 -174 c67 -138 129 -240 198 -323 34 -41 44 -34 19 14 -18 34
-18 36 -1 49 51 37 139 23 145 -25 l4 -24 16 22 17 21 75 -20 c113 -30 170
-42 220 -44 67 -4 215 -24 297 -42 65 -14 76 -14 120 1 26 8 66 18 87 22 21 3
98 28 170 56 72 27 136 51 141 52 6 2 23 8 38 14 35 15 40 15 32 2 -3 -5 -1
-10 4 -10 6 0 11 5 11 10 0 6 9 10 21 10 11 0 18 4 14 10 -6 10 53 45 62 36 6
-6 22 -187 24 -286 2 -72 2 -73 10 -30 5 25 11 63 15 85 3 22 18 81 34 130 15
50 30 99 33 110 2 11 5 -27 6 -85 1 -123 -12 -257 -35 -353 -9 -37 -14 -71
-11 -74 3 -3 16 15 29 39 13 25 39 71 58 104 l34 58 6 -30 c14 -68 -13 -211
-62 -320 -21 -50 -42 -59 -175 -79 -78 -12 -117 -12 -260 0 -92 7 -224 16
-293 20 -69 3 -168 13 -220 21 -52 8 -156 23 -230 34 -256 35 -475 70 -578 90
-56 11 -116 20 -132 20 -24 0 -30 4 -30 23 -2 80 -21 217 -34 242 -23 44 -21
63 4 40 26 -24 26 -3 0 33 -12 16 -29 77 -44 157 -38 193 -58 316 -53 322 3 2
12 -15 20 -39 21 -58 98 -226 125 -272 12 -20 22 -41 22 -45 0 -5 8 -15 17
-22 15 -13 16 -12 9 11 -43 139 -67 263 -80 420 l-6 65 17 -35 c9 -19 50 -102
90 -185z m1408 178 c4 -21 10 -48 16 -61 14 -35 11 -42 -15 -42 -34 0 -38 11
-30 80 8 68 20 78 29 23z m-3460 -120 c19 -112 19 -119 1 -104 -18 15 -43 164
-36 221 3 27 19 -27 35 -117z m360 105 c3 -13 13 -40 22 -61 10 -22 13 -41 7
-46 -5 -5 -40 -11 -77 -14 l-68 -6 3 52 c3 51 4 53 48 75 24 12 47 22 51 22 4
0 10 -10 14 -22z m730 -63 c70 -50 82 -62 150 -147 25 -32 41 -58 34 -58 -18
0 -132 30 -154 40 -11 5 -32 14 -46 19 -24 9 -28 17 -37 84 -6 40 -14 81 -18
90 -9 26 2 21 71 -28z m389 -47 c28 -48 207 -318 212 -318 2 0 -17 39 -41 88
-43 86 -67 142 -61 142 2 0 29 -39 62 -87 32 -49 98 -127 147 -174 l88 -85
-35 -51 c-38 -56 -116 -206 -116 -225 0 -6 20 29 44 78 48 94 69 124 102 142
19 10 22 6 41 -56 12 -37 24 -101 27 -143 l6 -75 -47 -12 c-39 -9 -143 -23
-180 -24 -5 0 -17 -4 -28 -8 -12 -4 -99 -22 -195 -40 -96 -17 -265 -50 -375
-72 -360 -72 -527 -82 -797 -48 -86 10 -167 22 -180 25 -16 4 -31 23 -49 64
-48 106 -45 111 26 36 36 -38 65 -65 65 -60 0 4 -6 16 -13 24 -16 18 -140 256
-150 286 -9 25 97 -87 129 -137 14 -21 26 -38 28 -38 11 0 -4 53 -37 127 -39
88 -133 400 -124 409 14 14 26 -12 47 -96 12 -50 24 -89 26 -87 2 1 -4 42 -13
90 -8 47 -13 93 -10 102 11 28 43 16 65 -24 19 -33 20 -40 7 -45 -24 -9 -17
-24 13 -28 22 -2 32 -14 54 -58 15 -30 27 -51 27 -46 1 6 10 0 21 -12 28 -30
33 -28 16 6 -8 15 -18 45 -22 66 -7 39 -7 39 22 32 16 -4 34 -14 40 -22 7 -8
28 -14 53 -14 23 0 83 -16 136 -35 52 -20 120 -40 152 -46 32 -6 73 -17 92
-25 41 -17 42 -17 35 0 -8 21 23 24 86 9 87 -20 125 -16 205 21 41 19 87 37
104 41 31 7 65 35 42 35 -7 0 -52 -12 -101 -27 -70 -21 -94 -24 -112 -16 -27
13 -31 11 100 47 110 31 128 31 199 9 41 -13 61 -14 81 -7 30 11 92 0 104 -19
4 -6 10 -9 13 -6 3 4 -4 28 -15 55 -12 27 -43 123 -70 214 -27 91 -52 173 -56
183 -13 34 88 -26 110 -65z m1472 51 c3 -5 -18 -9 -45 -9 -45 0 -61 7 -47 21
8 8 86 -3 92 -12z m-184 -72 c13 -20 9 -24 -39 -37 -27 -7 -94 -34 -149 -60
-78 -36 -101 -44 -99 -31 2 9 4 25 4 36 2 34 15 44 102 80 70 30 92 34 129 29
25 -3 48 -11 52 -17z m307 14 c14 -9 -21 -16 -151 -27 -65 -5 -78 -4 -78 8 0
8 3 18 7 21 9 10 206 8 222 -2z m-2409 -21 c0 -7 -14 -8 -37 -4 -52 9 -54 14
-5 14 23 0 42 -5 42 -10z m2841 -22 c7 -28 7 -28 -42 -28 -51 0 -52 1 -43 38
6 19 12 23 42 20 29 -2 37 -8 43 -30z m229 18 c0 -7 -10 -16 -22 -19 -27 -7
-32 -3 -25 18 8 19 47 20 47 1z m-3305 -27 c9 -17 15 -33 12 -35 -2 -2 -47 -7
-101 -11 l-96 -6 0 36 c0 19 6 38 13 40 6 3 45 6 84 6 71 1 73 0 88 -30z m234
1 c13 -3 28 -16 32 -28 8 -21 6 -22 -56 -22 -68 0 -69 0 -79 43 -6 27 -6 27
36 21 24 -4 54 -10 67 -14z m211 0 c9 -6 0 -7 -25 -3 -22 3 -47 10 -55 15 -19
12 59 0 80 -12z m2480 -10 c0 -6 -24 -10 -52 -9 -42 1 -48 3 -28 9 36 12 80
12 80 0z m-201 -10 c-9 -5 -63 -14 -120 -19 -58 -6 -124 -13 -147 -17 -40 -6
-42 -6 -42 20 l0 26 163 0 c105 -1 156 -4 146 -10z m-369 -9 c0 -5 2 -15 5
-23 4 -10 -20 -18 -97 -32 -56 -10 -126 -27 -156 -37 -87 -30 -71 -16 35 31
142 63 213 83 213 61z m-1876 -22 c17 -16 0 -19 -54 -12 -30 5 -55 14 -58 22
-4 11 6 12 49 6 30 -4 58 -11 63 -16z m82 -26 c-7 -7 -26 7 -26 19 0 6 6 6 15
-2 9 -7 13 -15 11 -17z m196 -19 c85 -20 119 -33 136 -51 12 -13 22 -26 22
-28 0 -3 -22 4 -50 15 -27 11 -91 30 -142 43 -51 13 -94 29 -96 36 -5 15 3 14
130 -15z m-1170 -16 c-12 -12 -35 -1 -27 12 3 5 13 6 21 3 10 -4 12 -9 6 -15z
m455 16 c-3 -3 -12 -4 -19 -1 -8 3 -5 6 6 6 11 1 17 -2 13 -5z m248 -4 c4 -6
-22 -10 -69 -10 -44 0 -76 4 -76 10 0 6 30 10 69 10 39 0 73 -4 76 -10z m218
-9 c18 -18 1 -22 -59 -14 -34 5 -59 14 -62 22 -4 11 6 13 53 8 32 -3 63 -11
68 -16z m423 -18 c-7 -7 -26 7 -26 19 0 6 6 6 15 -2 9 -7 13 -15 11 -17z
m-351 -3 c8 -13 -15 -13 -35 0 -12 8 -11 10 7 10 12 0 25 -4 28 -10z m141 -9
c16 -5 70 -22 119 -37 50 -15 93 -32 97 -38 4 -6 10 -7 14 -4 4 4 -1 19 -10
32 -9 14 -16 31 -16 38 0 19 54 -38 80 -84 l23 -42 -32 23 c-18 13 -51 25 -72
26 -22 2 -50 10 -62 18 -12 8 -43 18 -67 22 -25 4 -62 16 -82 26 -54 28 -50
38 8 20z m2594 1 c0 -5 -6 -9 -12 -10 -7 0 -24 -3 -38 -6 -21 -5 -21 -4 5 8
35 18 45 19 45 8z m-3420 -36 c25 -7 85 -19 134 -27 62 -9 96 -19 109 -32 13
-13 22 -16 29 -9 12 12 86 -19 105 -43 11 -16 95 -41 176 -52 20 -3 40 -10 43
-15 8 -12 -158 -2 -230 14 -27 6 -76 21 -110 34 -33 13 -71 24 -85 25 -33 0
-233 90 -239 107 -5 15 12 15 68 -2z m3260 -30 c0 -2 -7 -7 -16 -10 -8 -3 -12
-2 -9 4 6 10 25 14 25 6z m-1085 -26 c25 -11 -1 -11 -35 0 -20 6 -21 8 -5 8
11 0 29 -3 40 -8z m867 -62 c-24 -11 -46 -17 -49 -15 -8 8 50 36 72 36 13 -1
4 -8 -23 -21z m-3657 -332 c41 -63 75 -119 75 -125 0 -6 27 -40 61 -75 33 -36
59 -71 57 -78 -10 -29 -216 201 -258 288 -18 36 -28 104 -15 104 2 0 38 -51
80 -114z m317 -73 c41 -91 30 -88 -15 3 -21 42 -32 72 -26 68 6 -4 25 -36 41
-71z m3213 -1339 c-8 -16 -15 -25 -15 -20 0 6 -16 -5 -35 -24 -19 -19 -35 -39
-35 -46 0 -12 -116 -120 -285 -264 -60 -51 -146 -126 -190 -165 -44 -39 -96
-81 -115 -92 -74 -43 -134 -73 -110 -56 93 67 179 133 201 154 105 97 220 200
314 281 61 53 148 136 195 184 47 49 86 86 88 83 1 -3 -4 -19 -13 -35z m70
-514 c13 -5 14 -9 5 -9 -8 0 -24 4 -35 9 -13 5 -14 9 -5 9 8 0 24 -4 35 -9z
m65 -15 c0 -9 -6 -12 -16 -8 -13 5 -13 7 -2 14 17 11 18 11 18 -6z m-2400
-104 c0 -69 -6 -91 -26 -91 -14 0 -31 32 -52 97 -10 32 -9 33 21 42 56 16 57
15 57 -48z m1962 2 c-62 -72 -241 -246 -221 -216 71 107 229 272 262 273 5 0
-14 -26 -41 -57z m-1975 -135 c-3 -7 -5 -2 -5 12 0 14 2 19 5 13 2 -7 2 -19 0
-25z m2290 -30 c-3 -8 -6 -5 -6 6 -1 11 2 17 5 13 3 -3 4 -12 1 -19z m-2269
-63 c0 -16 -2 -15 -8 5 -4 14 -8 34 -8 45 0 16 2 15 8 -5 4 -14 8 -34 8 -45z
m9 -47 c-3 -8 -6 -5 -6 6 -1 11 2 17 5 13 3 -3 4 -12 1 -19z m22 -68 c0 -9 -4
-8 -9 5 -5 11 -9 27 -9 35 0 9 4 8 9 -5 5 -11 9 -27 9 -35z"/>
<path d="M2430 4120 c0 -5 7 -10 15 -10 8 0 15 5 15 10 0 6 -7 10 -15 10 -8 0
-15 -4 -15 -10z"/>
<path d="M1350 3590 c12 -16 24 -30 26 -30 3 0 -4 14 -16 30 -12 17 -24 30
-26 30 -3 0 4 -13 16 -30z"/>
<path d="M2450 848 c-6 -29 -16 -91 -21 -138 -6 -47 -17 -134 -25 -195 -7 -60
-21 -193 -29 -295 -9 -102 -18 -193 -21 -202 -3 -12 0 -18 10 -18 16 0 15 -6
41 290 9 102 20 214 25 250 5 36 17 124 26 195 8 72 18 138 20 148 3 9 1 17
-4 17 -6 0 -15 -24 -22 -52z"/>
<path d="M5545 540 c3 -25 14 -124 25 -220 12 -96 23 -203 27 -237 6 -62 17
-93 28 -81 14 13 -50 508 -71 553 l-14 30 5 -45z"/>
<path d="M4555 180 c27 -12 43 -12 25 0 -8 5 -22 9 -30 9 -10 0 -8 -3 5 -9z"/>
<path d="M4681 116 c13 -13 191 -116 202 -116 6 0 -16 16 -49 36 -64 39 -163
90 -153 80z"/>
</g>
</svg>
